<svg xmlns="http://www.w3.org/2000/svg" width="1200" height="627" viewBox="0 0 1200 627">
  <defs>
    <linearGradient id="bg" x1="0" y1="0" x2="1" y2="1">
      <stop offset="0" stop-color="#0b1020"/>
      <stop offset="1" stop-color="#172554"/>
    </linearGradient>
    <linearGradient id="accent" x1="0" y1="0" x2="1" y2="0">
      <stop offset="0" stop-color="#38bdf8"/>
      <stop offset="1" stop-color="#818cf8"/>
    </linearGradient>
    <filter id="shadow" x="-20%" y="-20%" width="140%" height="140%">
      <feDropShadow dx="0" dy="8" stdDeviation="12" flood-color="#020617" flood-opacity="0.45"/>
    </filter>
  </defs>

  <rect width="1200" height="627" fill="url(#bg)"/>
  <circle cx="1080" cy="90" r="180" fill="#38bdf8" opacity="0.06"/>
  <circle cx="80" cy="590" r="220" fill="#818cf8" opacity="0.07"/>

  <text x="70" y="72" fill="#94a3b8" font-family="Inter, Segoe UI, Arial, sans-serif" font-size="22" font-weight="600" letter-spacing="3">LLM BINARIZATION · EPISODE ONE</text>
  <text x="70" y="128" fill="#f8fafc" font-family="Inter, Segoe UI, Arial, sans-serif" font-size="48" font-weight="750">Addition Is (Almost) All You Need</text>
  <text x="70" y="166" fill="#cbd5e1" font-family="Inter, Segoe UI, Arial, sans-serif" font-size="24">Structural binary quantization for llama.cpp</text>

  <g filter="url(#shadow)">
    <rect x="70" y="210" width="1060" height="158" rx="20" fill="#111827" stroke="#334155" stroke-width="2"/>
  </g>

  <g font-family="Inter, Segoe UI, Arial, sans-serif" text-anchor="middle">
    <rect x="105" y="258" width="150" height="64" rx="12" fill="#1e293b" stroke="#64748b"/>
    <text x="180" y="298" fill="#f8fafc" font-size="24" font-weight="700">FP16 W</text>

    <text x="288" y="299" fill="#38bdf8" font-size="32" font-weight="700">→</text>

    <rect x="320" y="258" width="92" height="64" rx="12" fill="#172554" stroke="#60a5fa"/>
    <text x="366" y="298" fill="#bfdbfe" font-size="24" font-weight="700">D</text>

    <text x="438" y="299" fill="#64748b" font-size="28">·</text>

    <rect x="462" y="244" width="170" height="92" rx="14" fill="#082f49" stroke="#38bdf8" stroke-width="2"/>
    <text x="547" y="282" fill="#7dd3fc" font-size="23" font-weight="750">SIGN1</text>
    <text x="547" y="312" fill="#e0f2fe" font-size="19">+1 / −1</text>

    <text x="658" y="299" fill="#64748b" font-size="28">·</text>

    <rect x="682" y="258" width="92" height="64" rx="12" fill="#172554" stroke="#60a5fa"/>
    <text x="728" y="298" fill="#bfdbfe" font-size="24" font-weight="700">D</text>

    <text x="800" y="299" fill="#64748b" font-size="28">·</text>

    <rect x="824" y="244" width="170" height="92" rx="14" fill="#082f49" stroke="#38bdf8" stroke-width="2"/>
    <text x="909" y="282" fill="#7dd3fc" font-size="23" font-weight="750">SIGN1</text>
    <text x="909" y="312" fill="#e0f2fe" font-size="19">+1 / −1</text>

    <text x="1020" y="299" fill="#64748b" font-size="28">·</text>

    <rect x="1044" y="258" width="52" height="64" rx="12" fill="#172554" stroke="#60a5fa"/>
    <text x="1070" y="298" fill="#bfdbfe" font-size="24" font-weight="700">D</text>
  </g>

  <g font-family="Inter, Segoe UI, Arial, sans-serif" text-anchor="middle" filter="url(#shadow)">
    <rect x="70" y="408" width="330" height="132" rx="18" fill="#111827" stroke="#334155"/>
    <text x="235" y="460" fill="#38bdf8" font-size="38" font-weight="800">2.555 bpe</text>
    <text x="235" y="501" fill="#cbd5e1" font-size="21">smaller than Q2_K</text>

    <rect x="435" y="408" width="330" height="132" rx="18" fill="#111827" stroke="#334155"/>
    <text x="600" y="460" fill="#818cf8" font-size="38" font-weight="800">≈ Q3_K</text>
    <text x="600" y="501" fill="#cbd5e1" font-size="21">measured model quality</text>

    <rect x="800" y="408" width="330" height="132" rx="18" fill="#111827" stroke="#334155"/>
    <text x="965" y="456" fill="#34d399" font-size="34" font-weight="800">Near Q2_K</text>
    <text x="965" y="498" fill="#cbd5e1" font-size="21">Vulkan speed</text>
  </g>

  <rect x="70" y="575" width="1060" height="3" rx="2" fill="url(#accent)"/>
  <text x="70" y="607" fill="#94a3b8" font-family="Inter, Segoe UI, Arial, sans-serif" font-size="18">Sasha Shlemov · github.com/eodus · DBF/SIGN1 on Qwen3.6-35B-A3B</text>
</svg>
