<svg xmlns="http://www.w3.org/2000/svg" viewBox="0 0 448 512" role="img" aria-label="Red and blue horseshoe magnet">
  <!-- Font Awesome Free 7.3.1 magnet geometry, CC BY 4.0. Colors adapted for this deck. -->
  <defs>
    <path id="magnet" d="M0 176V288C0 411.7 100.3 512 224 512S448 411.7 448 288V176H320V288C320 341 277 384 224 384S128 341 128 288V176H0ZM0 128H128V64C128 46.3 113.7 32 96 32H32C14.3 32 0 46.3 0 64V128ZM320 128H448V64C448 46.3 433.7 32 416 32H352C334.3 32 320 46.3 320 64V128Z"/>
    <clipPath id="left-half"><rect width="224" height="512"/></clipPath>
    <clipPath id="right-half"><rect x="224" width="224" height="512"/></clipPath>
  </defs>
  <use href="#magnet" fill="#3b82f6" clip-path="url(#left-half)"/>
  <use href="#magnet" fill="#ef4444" clip-path="url(#right-half)"/>
</svg>
